<?xml version="1.0" encoding="utf-8"?>
<!-- Generator: Adobe Illustrator 21.0.0, SVG Export Plug-In . SVG Version: 6.00 Build 0)  -->
<svg version="1.1" id="outline" xmlns="http://www.w3.org/2000/svg" xmlns:xlink="http://www.w3.org/1999/xlink" x="0px" y="0px"
	 viewBox="0 0 512 512" style="enable-background:new 0 0 512 512;" xml:space="preserve">
<style type="text/css">
	.st0{fill:#5CDB95;}
</style>
<path class="st0" d="M431.8,374.3l-25.6-115.2l12-3.4c4.1-1.2,6.6-5.4,5.6-9.6l-8-32c-1.1-4.3-5.4-6.9-9.7-5.8c-0.1,0-0.2,0-0.3,0.1
	l-10.2,2.9l-10-45.1c-1.8-8.2-4.6-16.1-8.2-23.7l38.1-91.4c1.7-4-0.2-8.7-4.2-10.4l-56-24c-4-1.7-8.7,0.1-10.5,4.1L320,76.3V56
	c0-22.1-17.9-40-40-40h-48c-22.1,0-40,17.9-40,40v20.3l-24.7-55.6c-1.8-4-6.4-5.8-10.5-4.1l-56,24c-4,1.7-5.9,6.4-4.2,10.4
	l38.1,91.4c-3.6,7.6-6.4,15.5-8.2,23.7l-10,45.1l-10.2-2.9c-4.2-1.2-8.7,1.2-9.9,5.5c0,0.1,0,0.2-0.1,0.3l-8,32
	c-1,4.2,1.4,8.4,5.6,9.6l12,3.4L80.2,374.3c-0.1,0.6-0.2,1.2-0.2,1.7v36.8c0,46,37.3,83.2,83.2,83.2c0,0,0,0,0,0h185.5
	c46,0,83.2-37.3,83.2-83.2V376C432,375.4,431.9,374.8,431.8,374.3z M180.7,179.9c5.6-25.7,28.4-44,54.7-43.9h41.3
	c26.3-0.1,49.1,18.2,54.7,43.9l24,108.2l-28.2-28.2l-17.4-69.6c-4.4-17.8-20.4-30.3-38.8-30.3h-30c-18.4,0-34.4,12.5-38.8,30.3
	l-17.4,69.6l-28.2,28.2L180.7,179.9z M150.2,317.2l47.5-47.5c1-1,1.8-2.3,2.1-3.7l17.9-71.8C220.4,183.5,230,176,241,176h7v160H146
	L150.2,317.2z M264,176h7c11,0,20.6,7.5,23.3,18.2l17.9,71.8c0.4,1.4,1.1,2.7,2.1,3.7l47.5,47.5L366,336H264V176z M367.8,270.1
	l23-6.6l21.1,94.8l-28.8-19.2L367.8,270.1z M406.4,242.4l-42.1,12l-3.7-16.6l41.6-11.9L406.4,242.4z M356.1,34.5l41.5,17.8
	l-30.5,73.1c-9.7-13.5-22.4-24.5-37-32.3L356.1,34.5z M304,56v27.1c-5.3-1.3-10.6-2.2-16-2.7V33.4C297.6,36.8,304,45.8,304,56z
	 M240,64h32v16h-32V64z M272,48h-32V32h32V48z M224,33.4v47.1c-5.4,0.5-10.7,1.4-16,2.7V56C208,45.8,214.4,36.8,224,33.4z
	 M114.4,52.2l41.5-17.8l26,58.6c-14.7,7.8-27.3,18.8-37,32.3L114.4,52.2z M142.1,169.6c9.6-43,47.7-73.6,91.8-73.6h44.4
	c44.1,0,82.2,30.6,91.8,73.6l10.2,46l-23,6.6l-10.2-45.8c-7.3-32.9-36.5-56.4-70.3-56.4h-41.3c-33.7,0-63,23.4-70.3,56.4l-10.2,45.8
	l-23-6.6L142.1,169.6z M109.8,226l41.6,11.9l-3.7,16.6l-42.1-12L109.8,226z M144.2,270.1l-15.3,69l-28.8,19.2l21.1-94.8L144.2,270.1
	z M163.2,480c-12.2,0-24.1-3.3-34.5-9.5l19.6-13.1c9.2-6.1,20-9.4,31.1-9.4h153.2c11.1,0,21.9,3.3,31.1,9.4l19.6,13.1
	c-10.4,6.2-22.4,9.5-34.5,9.5H163.2z M400.4,455.8c-1.2,1.5-2.6,2.9-3.9,4.3l-24-16c-11.8-7.9-25.7-12.1-39.9-12.1H179.4
	c-14.2,0-28.1,4.2-39.9,12.1l-24,16c-1.3-1.4-2.7-2.8-3.9-4.3c-10.1-12.1-15.6-27.3-15.6-43v-32.5l42.4-28.3h235.2l42.4,28.3v32.5
	C416,428.5,410.5,443.7,400.4,455.8z"/>
</svg>
