<svg id="Layer_1" data-name="Layer 1" xmlns="http://www.w3.org/2000/svg" viewBox="0 0 173.13 57.93"><defs><style>.cls-1{fill:#5b5d6e;}.cls-2{fill:#464655;}.cls-3{fill:#ff5a64;}.cls-4{fill:#d74b55;}.cls-5{fill:#707487;}.cls-6{fill:#143458;stroke:#143458;stroke-miterlimit:10;stroke-width:0.25px;}</style></defs><title>Untitled-2</title><rect class="cls-1" x="9.99" y="2" width="2" height="14.98"/><rect class="cls-1" x="17.98" y="2" width="2" height="14.98"/><path class="cls-2" d="M18,62.93H16a1,1,0,0,1-1-1v-5h4v5A1,1,0,0,1,18,62.93Z" transform="translate(-13 -5)"/><path class="cls-2" d="M40,62.93H38a1,1,0,0,1-1-1v-5h4v5A1,1,0,0,1,40,62.93Z" transform="translate(-13 -5)"/><path class="cls-3" d="M41,58.94H15a2,2,0,0,1-2-2V26a5,5,0,0,1,5-5H38a5,5,0,0,1,5,5v31A2,2,0,0,1,41,58.94Z" transform="translate(-13 -5)"/><path class="cls-4" d="M37,36H19a2,2,0,0,0-2,2v12a2,2,0,0,0,2,2H37a2,2,0,0,0,2-2V38A2,2,0,0,0,37,36Z" transform="translate(-13 -5)"/><path class="cls-4" d="M37,32H19a2,2,0,0,1-2-2V27a2,2,0,0,1,2-2H37a2,2,0,0,1,2,2v3A2,2,0,0,1,37,32Z" transform="translate(-13 -5)"/><path class="cls-1" d="M36,41H20a1,1,0,1,1,0-2H36a1,1,0,0,1,0,2Z" transform="translate(-13 -5)"/><path class="cls-5" d="M33,8H23a1,1,0,0,1-1-1V6a1,1,0,0,1,1-1H33a1,1,0,0,1,1,1V7A1,1,0,0,1,33,8Z" transform="translate(-13 -5)"/><path class="cls-1" d="M13,55.94H43v1a2,2,0,0,1-2,2H15a2,2,0,0,1-2-2Z" transform="translate(-13 -5)"/><path class="cls-6" d="M74.22,19.06a5.06,5.06,0,0,1,4.41,2.78,13.11,13.11,0,0,1,1.71,7,14.21,14.21,0,0,1-.71,4.71,7.52,7.52,0,0,1-2.07,3.23v.33a6.48,6.48,0,0,1,3.21,3.63,16.23,16.23,0,0,1,1.15,6.36,18.43,18.43,0,0,1-.84,5.78,8.37,8.37,0,0,1-2.33,3.83A5.2,5.2,0,0,1,75.25,58H67V19.06Zm-1,16.15a2.68,2.68,0,0,0,2.38-1.42,7.54,7.54,0,0,0,.87-4,6.86,6.86,0,0,0-.8-3.58,2.41,2.41,0,0,0-2.12-1.32H70.81V35.21Zm.89,16.87A3.31,3.31,0,0,0,77,50.65a7.45,7.45,0,0,0,1-4.22,6.84,6.84,0,0,0-1-3.91,3,3,0,0,0-2.63-1.43H70.81v11Z" transform="translate(-13 -5)"/><path class="cls-6" d="M95.12,19.06l8.7,38.9h-4l-2-9.47H89L87.09,58h-4l8.12-38.9Zm-5,23.72h6.36l-3.33-15.4Z" transform="translate(-13 -5)"/><path class="cls-6" d="M115.61,18.56q3.64,0,7.22,3.2v6.88Q119.24,25,115.78,25a5.25,5.25,0,0,0-3.84,1.7,11.3,11.3,0,0,0-2.6,4.89,25.56,25.56,0,0,0-.92,7.11,19.78,19.78,0,0,0,2,9.59q2,3.63,5.29,3.63a4.93,4.93,0,0,0,1.73-.31,8.19,8.19,0,0,0,2-1.17V44h-3.26V38.16h7.07v16a10.66,10.66,0,0,1-3.49,3.13,8.64,8.64,0,0,1-4.24,1.13,7.81,7.81,0,0,1-5.65-2.53,17,17,0,0,1-3.95-7.1,34.28,34.28,0,0,1-1.42-10.19,34.84,34.84,0,0,1,1.43-10.33,17.17,17.17,0,0,1,4-7.18A7.9,7.9,0,0,1,115.61,18.56Z" transform="translate(-13 -5)"/><path class="cls-6" d="M133,18.56q2.88,0,5.54,2.84v6.68q-3.06-3.65-5.43-3.65a2.64,2.64,0,0,0-2.25,1.1,4.84,4.84,0,0,0-.81,2.94,6.32,6.32,0,0,0,1.51,4.06,40.68,40.68,0,0,0,3.26,3.12,13.53,13.53,0,0,1,3.5,5,18.29,18.29,0,0,1,1.07,6.63,15.73,15.73,0,0,1-1.83,8.09q-1.83,3.08-4.73,3.08a6.17,6.17,0,0,1-3.25-.82,13.28,13.28,0,0,1-3.05-2.83V47.41q3.16,5.18,6,5.18a2.66,2.66,0,0,0,2.26-1.2,5.33,5.33,0,0,0,.86-3.17,6.42,6.42,0,0,0-1.5-4.4q-1.24-1.34-3.2-3.2a13.31,13.31,0,0,1-3.48-4.87,16.83,16.83,0,0,1-1.15-6.46,14.44,14.44,0,0,1,1.85-7.81A5.58,5.58,0,0,1,133,18.56Z" transform="translate(-13 -5)"/><path class="cls-6" d="M152.81,18.56a7.55,7.55,0,0,1,5.51,2.49,17.46,17.46,0,0,1,3.9,7.18,34.65,34.65,0,0,1,1.45,10.29,34.65,34.65,0,0,1-1.42,10.12,17.72,17.72,0,0,1-3.89,7.24,7.27,7.27,0,0,1-11.14,0,17.69,17.69,0,0,1-3.9-7.2,34.61,34.61,0,0,1-1.4-10.12,35.18,35.18,0,0,1,1.4-10.05,17.93,17.93,0,0,1,3.85-7.31A7.55,7.55,0,0,1,152.81,18.56Zm-7,20a25.17,25.17,0,0,0,.89,7,11.61,11.61,0,0,0,2.47,4.79,4.81,4.81,0,0,0,3.59,1.7q3,0,5-3.76a21,21,0,0,0,2-9.69,25.55,25.55,0,0,0-.88-7,11.46,11.46,0,0,0-2.48-4.8,4.66,4.66,0,0,0-7.21,0,11.4,11.4,0,0,0-2.46,4.79A25.92,25.92,0,0,0,145.85,38.52Z" transform="translate(-13 -5)"/><path class="cls-6" d="M170.57,19.06l11.7,27.15V19.06H186V58h-3.27L171,30.37V58h-3.72V19.06Z" transform="translate(-13 -5)"/></svg>