<?xml version="1.0" encoding="utf-8"?>
<!-- Generator: Adobe Illustrator 21.0.0, SVG Export Plug-In . SVG Version: 6.00 Build 0)  -->
<svg version="1.1" id="Layer_1" xmlns="http://www.w3.org/2000/svg" xmlns:xlink="http://www.w3.org/1999/xlink" x="0px" y="0px"
	 viewBox="0 0 512 512" style="enable-background:new 0 0 512 512;" xml:space="preserve">
<style type="text/css">
	.st0{fill:#5CDB95;}
</style>
<g>
	<g>
		<path class="st0" d="M480,212.7c0-13.9-13.3-28.3-27.2-30.8L284.9,19.7C272.6,7,265.8,0,256,0s-16.6,6.9-28.9,19.6L59.7,181.3H59
			c-15.9,0-27,16.5-27,31.4V288c0,23.1,3.9,43.9,11.1,62.1c-0.2,0.6-0.3,1.3-0.4,1.9v74c-1.5,24.2,5.3,45,19.5,60.1
			c16,17,40,25.9,69.7,25.9h243.8c30.8,0,57.1-9.8,73.9-27.7c14.3-15,21-35.2,19.7-57.6V352c-0.1-0.6-0.2-1.3-0.4-1.9
			c7.1-18.1,11.1-38.9,11.1-62.1V212.7z M242,34.9l0.2-0.2c5.4-5.7,11.1-11.4,13.7-13c2.7,1.6,8.2,7.4,14,13.2l151.8,146.5H90.5
			L242,34.9z M434,469.7c-12.7,13.5-33.4,21-58.2,21H131.8c-23.6,0-42.3-6.6-54.1-19.2c-10.2-10.9-14.8-25.7-13.8-44.8v-41.2
			c22.4,26.2,55.4,41.2,96,41.2h53.3v10.7c0,5.9,4.8,10.7,10.7,10.7h53.3c5.9,0,10.7-4.8,10.7-10.7v-10.7h64
			c40.6,0,73.6-14.9,96-41.2v41.8C449.1,444.5,444.4,458.8,434,469.7z M234.7,426.7v-32h32v32H234.7z M458.8,288
			c0,72.4-40.9,117.3-106.7,117.3h-64V384c0-5.9-4.8-10.7-10.7-10.7h-53.3c-5.9,0-10.7,4.8-10.7,10.7v21.3h-53.3
			c-65.8,0-106.7-44.9-106.7-117.3v-75.3h-0.1c0-5,3.8-10,5.7-10h389.8c5.5,0,10,4.5,10,10L458.8,288L458.8,288z"/>
	</g>
</g>
</svg>
