<?xml version="1.0" encoding="utf-8"?>
<!-- Generator: Adobe Illustrator 21.0.0, SVG Export Plug-In . SVG Version: 6.00 Build 0)  -->
<svg version="1.1" id="Layer_1" xmlns="http://www.w3.org/2000/svg" xmlns:xlink="http://www.w3.org/1999/xlink" x="0px" y="0px"
	 viewBox="0 0 147.4 43.9" style="enable-background:new 0 0 147.4 43.9;" xml:space="preserve">
<style type="text/css">
	.st0{fill:#7CC576;}
</style>
<title>logo</title>
<path d="M15.6,15c3.6,0.3,6.3,1.2,8,2.7c1.7,1.4,2.7,3.5,2.6,5.7c0,1.9-0.6,3.7-1.8,5.1c-1.2,1.4-2.8,2.4-4.6,2.8
	c-2.4,0.5-4.9,0.7-7.4,0.7H0V31h1.2c1,0.1,1.9-0.1,2.8-0.5c0.5-0.4,0.9-1,1-1.6c0.2-1.7,0.3-3.4,0.2-5.1V8.4c0.1-1.7,0-3.3-0.2-5
	C5,2.7,4.6,2.2,4.1,1.8C3.1,1.5,2,1.3,1,1.4H0.3V0.3l5.2-0.1l6-0.2c8.7,0,13,2.5,13,7.5c0.1,1.9-0.8,3.8-2.2,5
	C20.4,13.9,18,14.8,15.6,15z M9.8,14.6h1c3.4,0,5.7-0.5,6.9-1.6c1.2-1.1,1.8-2.8,1.8-5.2c0.1-1.3-0.2-2.6-0.7-3.8
	c-0.5-0.9-1.3-1.6-2.2-2.1c-1.6-0.6-3.3-0.9-5-0.7c-0.6,0-1.2,0-1.9,0.1L9.8,14.6z M9.8,15.7v7.1c0,3,0.1,4.9,0.2,5.7
	c0.1,0.7,0.4,1.4,0.9,1.8c0.8,0.5,1.8,0.7,2.8,0.6c2.5,0,4.4-0.6,5.6-1.9s1.9-3.2,1.9-5.8c0-2.6-0.7-4.6-2.1-5.8
	c-1.4-1.2-3.9-1.9-7.5-1.9C11.1,15.7,10.5,15.7,9.8,15.7L9.8,15.7z"/>
<path d="M49.5,28.6h0.9c-0.1,2.7-1.5,4-3.9,4c-0.9,0.1-1.8-0.2-2.5-0.8c-0.7-0.7-1.1-1.6-1.2-2.5c-1.4,1-2.8,1.8-4.3,2.5
	c-1.1,0.5-2.3,0.8-3.5,0.8c-1.2,0-2.4-0.4-3.3-1.1c-0.9-0.7-1.5-1.8-1.4-3c0.1-1.7,0.9-3.3,2.4-4.2c2-1.4,4.2-2.6,6.5-3.5l3.6-1.5
	v-0.9c0-1-0.1-1.9-0.3-2.9c-0.2-0.7-0.7-1.2-1.3-1.6c-0.9-0.5-1.8-0.7-2.8-0.7c-2.3,0-3.7,0.8-3.9,2.3c-0.3,1.6-0.9,2.4-2,2.4
	c-1,0-1.4-0.5-1.4-1.4c0-0.9,0.6-1.9,1.9-2.9c1.3-1,3.2-1.5,5.9-1.5c1.6-0.1,3.2,0.2,4.7,1c0.9,0.5,1.7,1.2,2.2,2.1
	c0.4,1.2,0.6,2.4,0.5,3.7v7.7c-0.1,1.2,0,2.4,0.3,3.5c0.2,0.5,0.7,0.8,1.2,0.8C48.6,30.9,49.3,30.1,49.5,28.6z M42.7,20.4l-2.6,1
	c-4,1.6-6,3.7-6,6.2c0,0.9,0.2,1.7,0.8,2.4c0.5,0.6,1.2,0.9,2,0.9c0.9,0,1.8-0.3,2.6-0.7c1.2-0.6,2.3-1.3,3.3-2.2L42.7,20.4z"/>
<path d="M67.3,14.6c0.9-1.3,2.4-2.1,4-2.2c0.6,0,1.3,0.2,1.8,0.6c0.4,0.3,0.6,0.8,0.6,1.3c0,1-0.5,1.5-1.4,1.5
	c-0.6-0.1-1.1-0.4-1.3-1c-0.3-0.6-0.7-0.9-1.1-0.9c-0.8,0.1-1.5,0.6-2,1.2c0.8,1.2,1.2,2.6,1.2,4.1c0,1.9-0.7,3.7-2,5
	c-1.3,1.5-3.6,2.2-6.8,2.3c-3.3,0.1-5,0.8-5,2c0,0.6,0.4,1,1.1,1.2c1.5,0.4,3.1,0.5,4.6,0.6c2,0,4,0.3,6,0.7
	c1.3,0.3,2.5,1.1,3.3,2.2c2.1,2.8,1.5,6.7-1.3,8.8c0,0,0,0,0,0c-1.7,1.3-4.1,1.9-7.3,1.9c-2.4,0.1-4.9-0.5-7-1.7
	c-1.6-0.9-2.6-2.5-2.6-4.3c0-0.9,0.2-1.7,0.8-2.4c0.5-0.6,1.3-1,2.1-0.9c0.2,0,0.5,0,0.7,0.1c-0.9,0.9-1.4,2.1-1.4,3.4
	c0,1.4,0.7,2.7,1.9,3.4c1.7,1,3.8,1.5,5.8,1.3c1.9,0.1,3.7-0.4,5.3-1.3c1.2-0.8,1.9-2.1,1.9-3.5c0.1-1.3-0.5-2.6-1.7-3.3
	c-1.1-0.6-3.2-1-6.1-1.1c-3.3-0.1-5.5-0.6-6.5-1.2c-0.9-0.5-1.5-1.5-1.5-2.6c0-2,1.4-3.3,4.3-3.9c-1.3-0.7-2.5-1.8-3.3-3
	c-0.7-1.1-1.1-2.4-1.1-3.8c0-1.9,0.8-3.8,2.3-5c1.5-1.3,3.5-2.1,5.5-2C63.4,12,65.7,12.9,67.3,14.6z M56.8,19.7
	c-0.1,1.6,0.3,3.2,1.2,4.4c1.5,1.7,4.2,1.9,5.9,0.3c0.1-0.1,0.2-0.2,0.3-0.3c0.9-0.9,1.3-2.5,1.3-4.8s-0.5-3.9-1.3-4.7
	c-0.8-0.8-1.9-1.3-3.1-1.3c-1.3-0.1-2.5,0.5-3.2,1.6C57.1,16.4,56.7,18,56.8,19.7z"/>
<path class="st0" d="M75.3,32.7v-6.3h0.9c1.1,3.6,3,5.5,5.7,5.5c1,0.1,2-0.3,2.7-1.1c0.6-0.7,0.9-1.5,0.9-2.4c0-0.9-0.3-1.8-0.9-2.5
	c-1.1-1-2.4-1.7-3.7-2.3c-1.5-0.7-3-1.6-4.2-2.8c-0.8-0.9-1.3-2.1-1.2-3.4c0-1.3,0.5-2.6,1.4-3.6c0.9-1.2,2.3-1.8,3.8-1.7
	c1.6,0,3.2,0.7,4.2,2c0.4-0.5,0.7-1.1,0.9-1.7h0.9v5.9h-0.9c-0.3-1.4-0.9-2.6-1.8-3.7c-0.8-1-1.9-1.5-3.2-1.5
	c-0.8,0-1.7,0.3-2.3,0.9c-0.6,0.5-0.9,1.2-0.9,2c0,0.8,0.4,1.6,1,2.2c1.1,0.9,2.3,1.6,3.6,2.1c2.7,1.2,4.3,2.4,4.9,3.5
	c0.6,1,0.9,2.2,0.9,3.3c0.1,1.5-0.5,3-1.7,4.1c-1.1,1.1-2.6,1.6-4.2,1.6c-1.8,0-3.5-0.8-4.7-2.2c-0.5,0.6-0.8,1.3-1,2L75.3,32.7z"/>
<path class="st0" d="M91.2,22.5c-0.1-2.8,1-5.4,3-7.4c4-4,10.5-4,14.6,0c2,1.9,3.1,4.6,3,7.4c0.2,2.9-0.9,5.6-3,7.6
	c-2,1.9-4.6,2.9-7.3,2.8c-2.7,0.1-5.3-1-7.2-2.8C92.1,28.1,91,25.3,91.2,22.5z M95.1,22.6c0,3.4,0.6,5.8,1.7,7.2
	c2.4,2.6,6.4,2.7,9,0.4c0.1-0.1,0.2-0.2,0.4-0.4c1.1-1.4,1.6-3.8,1.6-7.2c0-3.4-0.5-5.8-1.6-7.2c-2.2-2.6-6.2-2.9-8.8-0.6
	c-0.2,0.2-0.4,0.4-0.6,0.6C95.6,16.8,95.1,19.2,95.1,22.6L95.1,22.6z"/>
<path class="st0" d="M120,12.1h0.6c0.4,1.3,0.6,2.6,0.6,4c1-1.2,2.2-2.2,3.5-3c1.2-0.7,2.5-1,3.9-1c1.3,0,2.6,0.3,3.8,1
	c0.9,0.5,1.6,1.4,1.9,2.4c0.3,1.3,0.5,2.7,0.4,4.1v6c0,1.4,0,2.7,0.1,4c0.1,0.5,0.3,0.9,0.7,1.1c0.7,0.3,1.5,0.4,2.3,0.4v1.1H128V31
	h0.5c0.8,0.1,1.5-0.1,2.2-0.5c0.3-0.3,0.5-0.7,0.6-1.2c0-0.4,0.1-1.7,0.1-3.9v-6.2c0-1.1,0-2.2-0.2-3.2c-0.2-0.7-0.6-1.3-1.2-1.7
	c-0.7-0.6-1.6-0.8-2.5-0.8c-1.2,0-2.3,0.4-3.3,1c-1.2,0.8-2.2,1.9-2.9,3.1v7.8c0,1.4,0.1,2.7,0.2,4.1c0.1,0.5,0.3,0.9,0.8,1.1
	c0.7,0.3,1.5,0.4,2.3,0.4v1.1h-9.7V31c0.8,0.1,1.5-0.1,2.2-0.3c0.4-0.2,0.7-0.6,0.8-1c0.1-1.4,0.2-2.8,0.1-4.2v-5.7
	c0-1.4,0-2.7-0.1-4.1c-0.1-0.5-0.3-0.9-0.8-1.1c-0.7-0.3-1.5-0.4-2.3-0.4v-1.1C116.5,13,118.3,12.7,120,12.1z"/>
<path d="M142.3,30.4c0-1.4,1.1-2.5,2.5-2.5c0.7,0,1.3,0.3,1.8,0.7c1,1,1,2.6,0,3.5c0,0,0,0,0,0c-0.5,0.5-1.1,0.7-1.8,0.7
	c-0.7,0-1.3-0.3-1.8-0.8C142.6,31.7,142.3,31,142.3,30.4z"/>
</svg>
