<svg id="Layer_1" data-name="Layer 1" xmlns="http://www.w3.org/2000/svg" viewBox="0 0 144.35 54.93"><defs><style>.cls-1{fill:#5b5d6e;}.cls-2{fill:#464655;}.cls-3{fill:#ff5a64;}.cls-4{fill:#d74b55;}.cls-5{fill:#707487;}.cls-6{fill:#2ecc40;stroke:#224368;stroke-miterlimit:10;stroke-width:0.25px;}</style></defs><title>logo</title><rect class="cls-1" x="9.47" y="1.89" width="1.89" height="14.21"/><rect class="cls-1" x="17.05" y="1.89" width="1.89" height="14.21"/><path class="cls-2" d="M14.74,60.93H12.84a1,1,0,0,1-.95-.95V55.25h3.79V60A1,1,0,0,1,14.74,60.93Z" transform="translate(-10 -6)"/><path class="cls-2" d="M35.57,60.93H33.68a1,1,0,0,1-.95-.95V55.25h3.79V60A1,1,0,0,1,35.57,60.93Z" transform="translate(-10 -6)"/><path class="cls-3" d="M36.52,57.15H11.89A1.89,1.89,0,0,1,10,55.25V25.89a4.74,4.74,0,0,1,4.74-4.74H33.68a4.74,4.74,0,0,1,4.74,4.74V55.25A1.89,1.89,0,0,1,36.52,57.15Z" transform="translate(-10 -6)"/><path class="cls-4" d="M32.73,35.36h-17a1.89,1.89,0,0,0-1.89,1.89V48.62a1.89,1.89,0,0,0,1.89,1.89h17a1.89,1.89,0,0,0,1.89-1.89V37.26A1.89,1.89,0,0,0,32.73,35.36Z" transform="translate(-10 -6)"/><path class="cls-4" d="M32.73,31.57h-17a1.89,1.89,0,0,1-1.89-1.89V26.84a1.89,1.89,0,0,1,1.89-1.89h17a1.89,1.89,0,0,1,1.89,1.89v2.84A1.89,1.89,0,0,1,32.73,31.57Z" transform="translate(-10 -6)"/><path class="cls-1" d="M31.78,40.1H16.63a.95.95,0,0,1,0-1.89H31.78a.95.95,0,0,1,0,1.89Z" transform="translate(-10 -6)"/><path class="cls-5" d="M28.94,8.84H19.47a1,1,0,0,1-.95-.95V6.95A1,1,0,0,1,19.47,6h9.47a1,1,0,0,1,.95.95v.95A1,1,0,0,1,28.94,8.84Z" transform="translate(-10 -6)"/><path class="cls-1" d="M10,54.3H38.41v.95a1.89,1.89,0,0,1-1.89,1.89H11.89A1.89,1.89,0,0,1,10,55.25Z" transform="translate(-10 -6)"/><path class="cls-6" d="M56.62,18.06q2.36,0,3.85,2.78a14.64,14.64,0,0,1,1.49,7,16.12,16.12,0,0,1-.62,4.71,7.71,7.71,0,0,1-1.8,3.23v.33a6.26,6.26,0,0,1,2.8,3.63,18.33,18.33,0,0,1,1,6.36,20.92,20.92,0,0,1-.73,5.78,8.64,8.64,0,0,1-2,3.83A4.21,4.21,0,0,1,57.52,57h-7.2V18.06Zm-.89,16.15a2.31,2.31,0,0,0,2.08-1.42,8.45,8.45,0,0,0,.76-4,7.68,7.68,0,0,0-.7-3.58A2.09,2.09,0,0,0,56,23.94H53.64V34.21Zm.78,16.87a2.79,2.79,0,0,0,2.55-1.43,8.32,8.32,0,0,0,.86-4.22,7.62,7.62,0,0,0-.86-3.91,2.59,2.59,0,0,0-2.3-1.43H53.64v11Z" transform="translate(-10 -6)"/><path class="cls-6" d="M74.87,18.06,82.46,57H79l-1.79-9.47H69.52L67.86,57H64.38l7.09-38.9ZM70.53,41.78h5.55l-2.91-15.4Z" transform="translate(-10 -6)"/><path class="cls-6" d="M92.76,17.56q3.18,0,6.3,3.2v6.88Q95.93,24,92.91,24a4.34,4.34,0,0,0-3.35,1.7,11.88,11.88,0,0,0-2.27,4.89,29.06,29.06,0,0,0-.81,7.11,22.21,22.21,0,0,0,1.75,9.59Q90,51,92.86,51a3.82,3.82,0,0,0,1.51-.31,7,7,0,0,0,1.72-1.17V43H93.24V37.16h6.17v16a9.88,9.88,0,0,1-3,3.13,6.82,6.82,0,0,1-3.7,1.13,6.47,6.47,0,0,1-4.93-2.53,17.74,17.74,0,0,1-3.45-7.1A38.94,38.94,0,0,1,83,37.64a39.58,39.58,0,0,1,1.25-10.33,18,18,0,0,1,3.48-7.18A6.54,6.54,0,0,1,92.76,17.56Z" transform="translate(-10 -6)"/><path class="cls-6" d="M107.94,17.56q2.51,0,4.84,2.84v6.68q-2.67-3.65-4.74-3.65a2.22,2.22,0,0,0-2,1.1,5.36,5.36,0,0,0-.71,2.94,6.9,6.9,0,0,0,1.32,4.06,38.29,38.29,0,0,0,2.84,3.12,13.72,13.72,0,0,1,3.05,5,20.71,20.71,0,0,1,.94,6.63,17.62,17.62,0,0,1-1.59,8.09q-1.6,3.08-4.13,3.08a4.87,4.87,0,0,1-2.84-.82,12.36,12.36,0,0,1-2.67-2.83V46.41q2.76,5.18,5.2,5.18a2.25,2.25,0,0,0,2-1.2,5.92,5.92,0,0,0,.75-3.17,7,7,0,0,0-1.31-4.4q-1.08-1.34-2.79-3.2a13.44,13.44,0,0,1-3-4.87,19,19,0,0,1-1-6.46,16.13,16.13,0,0,1,1.61-7.81Q105.29,17.56,107.94,17.56Z" transform="translate(-10 -6)"/><path class="cls-6" d="M125.24,17.56A6.25,6.25,0,0,1,130,20.05a18.32,18.32,0,0,1,3.4,7.18,39.35,39.35,0,0,1,1.27,10.29,39.36,39.36,0,0,1-1.24,10.12,18.62,18.62,0,0,1-3.4,7.24,5.85,5.85,0,0,1-9.73,0,18.58,18.58,0,0,1-3.4-7.2,39.32,39.32,0,0,1-1.22-10.12A40,40,0,0,1,117,27.47a18.89,18.89,0,0,1,3.36-7.31A6.27,6.27,0,0,1,125.24,17.56Zm-6.07,20a28.63,28.63,0,0,0,.78,7,12.26,12.26,0,0,0,2.16,4.79,4,4,0,0,0,3.13,1.7q2.65,0,4.35-3.76a23.6,23.6,0,0,0,1.71-9.69,29.06,29.06,0,0,0-.77-7,12.09,12.09,0,0,0-2.17-4.8,3.75,3.75,0,0,0-6.29,0,12,12,0,0,0-2.15,4.79A29.48,29.48,0,0,0,119.17,37.52Z" transform="translate(-10 -6)"/><path class="cls-6" d="M140.75,18.06,151,45.21V18.06h3.25V57h-2.86L141.08,29.37V57h-3.25V18.06Z" transform="translate(-10 -6)"/></svg>