<svg id="Layer_1" data-name="Layer 1" xmlns="http://www.w3.org/2000/svg" viewBox="0 0 171.3 43.92"><defs><style>.cls-1{fill:#7cc576;}</style></defs><title>s</title><path d="M51.28,40.14a6.78,6.78,0,0,1-1.36,4.37,8.61,8.61,0,0,1-3.45,2.58,16.42,16.42,0,0,1-4.08,1.16,27.5,27.5,0,0,1-3.84.28H22.62V46.37a8,8,0,0,0,3-.42,2.18,2.18,0,0,0,1.27-1.2,6.21,6.21,0,0,0,.29-2.13V22.56a4,4,0,0,0-.87-2.93q-.87-.82-3.7-.82v-2.2l6.47-.14,5.05-.11,2.78,0h.87a27.4,27.4,0,0,1,5.1.5,10.78,10.78,0,0,1,4.85,2.29,6.23,6.23,0,0,1,2.19,5.13,5.92,5.92,0,0,1-1.78,4.31,13.41,13.41,0,0,1-5.84,3,15.09,15.09,0,0,1,4.82,1.65,8.19,8.19,0,0,1,3.11,2.94A7.72,7.72,0,0,1,51.28,40.14Zm-8.06-15.7a5,5,0,0,0-3.11-4.79A9.14,9.14,0,0,0,36.35,19H33.89V30.34h1.92q3.77,0,5.59-1.59A5.45,5.45,0,0,0,43.22,24.44Zm.87,15.3a7.08,7.08,0,0,0-1.68-5,6.15,6.15,0,0,0-4.72-1.79h-3.8v8.27a13.46,13.46,0,0,0,.21,2.71,2.27,2.27,0,0,0,1.05,1.5,5.2,5.2,0,0,0,2.67.53,6.92,6.92,0,0,0,4.35-1.48A5.58,5.58,0,0,0,44.09,39.74Z" transform="translate(-22.62 -16.33)"/><path d="M79,43.58a6,6,0,0,1-.73,3,4.51,4.51,0,0,1-2,1.85,6.28,6.28,0,0,1-2.78.6,5.55,5.55,0,0,1-3.28-.93,3.57,3.57,0,0,1-1.57-2.21,12.56,12.56,0,0,1-7.87,3.14,6.66,6.66,0,0,1-4.15-1.23A3.88,3.88,0,0,1,55,44.59a5.45,5.45,0,0,1,.87-3,8,8,0,0,1,2.54-2.4,19.62,19.62,0,0,1,4-1.86q2.32-.81,5.79-1.7V34.28a4,4,0,0,0-.79-2.61,3.61,3.61,0,0,0-2.89-.95,3.72,3.72,0,0,0-2.6.75,3.92,3.92,0,0,0-1.05,2.27,4.18,4.18,0,0,1-.69,1.77,2.49,2.49,0,0,1-2.1.69,2.81,2.81,0,0,1-1.73-.56A2,2,0,0,1,55.6,34,4.6,4.6,0,0,1,58,30.18q2.37-1.62,7.27-1.62,5.16,0,7.09,1.73a5.93,5.93,0,0,1,1.93,4.64v7.41q0,1.41.07,2.06a1.69,1.69,0,0,0,.39,1,1.37,1.37,0,0,0,2.06-.29,2.53,2.53,0,0,0,.46-1.52Zm-10.76.19V38q-4.45,1.41-5.66,2.75a4,4,0,0,0-1.21,2.64A2.34,2.34,0,0,0,62,45.08a2.5,2.5,0,0,0,1.85.66,4.66,4.66,0,0,0,2.27-.54A14.27,14.27,0,0,0,68.21,43.77Z" transform="translate(-22.62 -16.33)"/><path d="M104.93,30.62a2,2,0,0,1-.46,1.36,1.37,1.37,0,0,1-1,.52,2.31,2.31,0,0,1-1.48-.63,3.81,3.81,0,0,1-.39-.29,3.76,3.76,0,0,0-.47-.34.76.76,0,0,0-.39-.12,1.56,1.56,0,0,0-1.15.47,10.39,10.39,0,0,1,1.23,1.91,5.34,5.34,0,0,1,.43,2.31,5.47,5.47,0,0,1-.86,3.15,5.69,5.69,0,0,1-2.25,1.93,12.23,12.23,0,0,1-2.84,1q-1.44.3-3.69.61-5.53.68-5.53,2.25,0,.68.83.94a8.9,8.9,0,0,0,2.47.26h3.56a29.5,29.5,0,0,1,3.28.18,12.74,12.74,0,0,1,3.2.81,6.65,6.65,0,0,1,2.78,2,5.67,5.67,0,0,1,1.15,3.7,6.65,6.65,0,0,1-1,3.45A8,8,0,0,1,98.58,59a17.75,17.75,0,0,1-7.2,1.21,26.88,26.88,0,0,1-7-.94q-3.48-.94-3.48-4.2a3.42,3.42,0,0,1,.67-2.05,2.33,2.33,0,0,1,2-.93,3.22,3.22,0,0,1,1.76.42A3,3,0,0,0,86.62,57,10.25,10.25,0,0,0,92,58.09a13,13,0,0,0,5.73-1q2.1-1,2.1-2.75a2.06,2.06,0,0,0-.9-1.83,5.68,5.68,0,0,0-2.58-.79q-1.68-.18-5.21-.22a21.17,21.17,0,0,1-6.75-.94,3.61,3.61,0,0,1-2.46-3.77,3.82,3.82,0,0,1,1.83-3.54,14.86,14.86,0,0,1,4.5-1.69Q82,40.33,82,35.62a6.58,6.58,0,0,1,3.81-5.91,12.23,12.23,0,0,1,5.75-1.15q4.62,0,7.1,2.16a4.44,4.44,0,0,1,3.77-2.11,2.65,2.65,0,0,1,1.85.6A1.86,1.86,0,0,1,104.93,30.62Zm-9.61,4.9a6.59,6.59,0,0,0-.89-3.47,3,3,0,0,0-2.79-1.48,3.14,3.14,0,0,0-2.91,1.37,6.16,6.16,0,0,0-.84,3.29,7.92,7.92,0,0,0,.79,3.53,3,3,0,0,0,3,1.61,3.27,3.27,0,0,0,2.66-1.25A5.58,5.58,0,0,0,95.32,35.52Z" transform="translate(-22.62 -16.33)"/><path class="cls-1" d="M126.42,43a5.16,5.16,0,0,1-1.21,3.45,7.44,7.44,0,0,1-3.3,2.17,14.55,14.55,0,0,1-4.84.74,19.55,19.55,0,0,1-3.73-.36,12.17,12.17,0,0,1-3.28-1.09l-.91,1.31h-1.83l-.23-6.09h2a5.65,5.65,0,0,0,2.37,2.82,9.56,9.56,0,0,0,5.37,1.25,15.55,15.55,0,0,0,1.92-.13,4.9,4.9,0,0,0,2-.71,2,2,0,0,0,.95-1.8,1.6,1.6,0,0,0-1-1.54A21.43,21.43,0,0,0,117,41.8q-3.23-.82-5.3-1.56a9.6,9.6,0,0,1-3.49-2.12,4.74,4.74,0,0,1-1.43-3.56,5,5,0,0,1,2.54-4.38A12.27,12.27,0,0,1,116,28.56a16.22,16.22,0,0,1,4.13.42,16.49,16.49,0,0,1,2.6.91l.56-1.2h1.88v5.44h-1.92a3.57,3.57,0,0,0-1.17-1.76,6.27,6.27,0,0,0-2.43-1.23,12.75,12.75,0,0,0-3.5-.43,15.46,15.46,0,0,0-3.27.35q-1.63.35-1.63,1.66a1.28,1.28,0,0,0,.32.89,2.91,2.91,0,0,0,1.09.66,25.67,25.67,0,0,0,2.72.8l2.32.59A24.86,24.86,0,0,1,124,38Q126.42,39.44,126.42,43Z" transform="translate(-22.62 -16.33)"/><path class="cls-1" d="M153,38.87a9.92,9.92,0,0,1-1.55,5.55A10,10,0,0,1,147.29,48a13.28,13.28,0,0,1-5.78,1.25,13.85,13.85,0,0,1-5.59-1.15,10.23,10.23,0,0,1-4.31-3.49,9.62,9.62,0,0,1-1.68-5.74q0-5.09,3.47-7.72a13.24,13.24,0,0,1,8.25-2.64A12.64,12.64,0,0,1,147.8,30a9.62,9.62,0,0,1,3.9,3.77A10.34,10.34,0,0,1,153,38.87Zm-6.47-.14a13.35,13.35,0,0,0-1.05-6q-1.05-2-4.1-2a4.14,4.14,0,0,0-4.56,3.6,21.43,21.43,0,0,0-.43,4.77,14.91,14.91,0,0,0,1,5.84q1,2.23,4.2,2.23a4.15,4.15,0,0,0,3.25-1.23,6,6,0,0,0,1.43-3A24.28,24.28,0,0,0,146.56,38.73Z" transform="translate(-22.62 -16.33)"/><path class="cls-1" d="M182.65,48.53H170.51V46.37a4,4,0,0,0,2-.36,1.55,1.55,0,0,0,.74-1.07,13.31,13.31,0,0,0,.14-2.32V36a7.07,7.07,0,0,0-.59-3.15,2.41,2.41,0,0,0-2.39-1.16,4.06,4.06,0,0,0-3.67,1.89,7.89,7.89,0,0,0-1.21,4.35v5.25a4.27,4.27,0,0,0,.54,2.53,2.93,2.93,0,0,0,2.32.68v2.16H156V46.37a6.93,6.93,0,0,0,2.25-.27,1.51,1.51,0,0,0,1-1,7.42,7.42,0,0,0,.23-2.19V35.38a2.71,2.71,0,0,0-.63-2.14,5.08,5.08,0,0,0-2.81-.5V30.58l9.12-2a16.57,16.57,0,0,1,.21,2.53q0,.3,0,.53t0,.5a15.57,15.57,0,0,1,3.07-2.57,7.39,7.39,0,0,1,4-1,8.69,8.69,0,0,1,3.62.73,5.62,5.62,0,0,1,2.52,2.2,6.64,6.64,0,0,1,.91,3.56V43a4.88,4.88,0,0,0,.53,2.7q.53.73,2.71.73Z" transform="translate(-22.62 -16.33)"/><path d="M193.92,45.65a3.5,3.5,0,0,1-1.08,2.6,3.71,3.71,0,0,1-5.18,0,3.5,3.5,0,0,1-1.08-2.6A3.61,3.61,0,0,1,187.64,43a3.5,3.5,0,0,1,2.6-1.08,3.64,3.64,0,0,1,3.68,3.7Z" transform="translate(-22.62 -16.33)"/></svg>