<svg xmlns="http://www.w3.org/2000/svg" viewBox="0 0 446.9 446.9"><path d="M444.3 93.4a14.33 14.33 0 0 0-11.1-6.1l-277.3-12c-8-.3-14.6 5.8-14.9 13.7s5.8 14.6 13.7 14.9L413.1 115l-50.8 158.5H136.2L95.4 51.2c-.9-4.9-4.2-8.9-8.9-10.8L19.6 14.1c-7.4-2.8-15.7.8-18.6 8.1-2.9 7.4.7 15.7 8.1 18.6l59.5 23.4 41.6 226.3c1.3 6.8 7.2 11.7 14.1 11.7h6.9L115.4 346c-1.3 3.7-.8 7.7 1.5 10.9 2.2 3.2 5.9 5.1 9.8 5.1h11c-6.8 7.6-11 17.6-11 28.7 0 23.7 19.3 43 43 43s43-19.3 43-43c0-11-4.2-21.1-11-28.7h93.8c-6.8 7.6-11 17.6-11 28.7 0 23.7 19.3 43 43 43s43-19.3 43-43c0-11-4.2-21.1-11-28.7h13.4c6.6 0 11.9-5.3 11.9-11.9s-5.3-11.9-11.9-11.9H143.7l12.9-35.8h216.2c6.2 0 11.8-4 13.7-10L446.2 106c1.3-4.3.6-9-1.9-12.6zM169.7 409.8c-10.5 0-19.1-8.6-19.1-19.1s8.6-19.1 19.1-19.1 19.1 8.6 19.1 19.1-8.6 19.1-19.1 19.1zm157.7 0c-10.5 0-19.1-8.6-19.1-19.1s8.6-19.1 19.1-19.1 19.1 8.6 19.1 19.1-8.6 19.1-19.1 19.1z" fill="#7cc576"/></svg>