<?xml version="1.0" encoding="utf-8"?>
<!-- Generator: Adobe Illustrator 21.0.0, SVG Export Plug-In . SVG Version: 6.00 Build 0)  -->
<svg version="1.1" id="Layer_1" xmlns="http://www.w3.org/2000/svg" xmlns:xlink="http://www.w3.org/1999/xlink" x="0px" y="0px"
	 viewBox="0 0 480 480" style="enable-background:new 0 0 480 480;" xml:space="preserve">
<style type="text/css">
	.st0{fill:#5CDB95;}
</style>
<path class="st0" d="M336,128h-48V40h16c4.4,0,8-3.6,8-8V8c0-4.4-3.6-8-8-8H176c-4.4,0-8,3.6-8,8v24c0,4.4,3.6,8,8,8h16v88h-48
	c-22.1,0-40,17.9-40,40v248c0,22.1,17.9,40,40,40v16c0,4.4,3.6,8,8,8h32c4.4,0,8-3.6,8-8v-16h96v16c0,4.4,3.6,8,8,8h32
	c4.4,0,8-3.6,8-8v-16c22.1,0,40-17.9,40-40V168C376,145.9,358.1,128,336,128z M184,16h112v8H184V16z M208,40h64v88h-64V40z M176,464
	h-16v-8h16V464z M320,464h-16v-8h16V464z M360,416c0,13.3-10.7,24-24,24H144c-13.3,0-24-10.7-24-24V168c0-13.3,10.7-24,24-24h192
	c13.3,0,24,10.7,24,24V416z"/>
<path class="st0" d="M240,160c-4.4,0-8,3.6-8,8v248c0,4.4,3.6,8,8,8s8-3.6,8-8V168C248,163.6,244.4,160,240,160z"/>
<path class="st0" d="M304,176c-4.4,0-8,3.6-8,8v216c0,4.4,3.6,8,8,8s8-3.6,8-8V184C312,179.6,308.4,176,304,176z"/>
<path class="st0" d="M176,176c-4.4,0-8,3.6-8,8v216c0,4.4,3.6,8,8,8s8-3.6,8-8V184C184,179.6,180.4,176,176,176z"/>
</svg>
