<?xml version="1.0" encoding="utf-8"?>
<!-- Generator: Adobe Illustrator 21.0.0, SVG Export Plug-In . SVG Version: 6.00 Build 0)  -->
<svg version="1.1" id="Layer_1" xmlns="http://www.w3.org/2000/svg" xmlns:xlink="http://www.w3.org/1999/xlink" x="0px" y="0px"
	 viewBox="0 0 24 21.4" style="enable-background:new 0 0 24 21.4;" xml:space="preserve">
<style type="text/css">
	.st0{fill:#00D774;}
</style>
<title>Untitled-1</title>
<path class="st0" d="M23.7,8.4L12.4,0.1c-0.2-0.2-0.5-0.2-0.7,0L0.3,8.4C0,8.7-0.1,9,0.1,9.3S0.7,9.7,1,9.4l11-8.1l11,8.1
	c0.3,0.2,0.7,0.1,0.9-0.1C24.1,9.1,24,8.7,23.7,8.4L23.7,8.4L23.7,8.4z"/>
<path class="st0" d="M20.7,9.6c-0.3,0-0.6,0.3-0.6,0.6c0,0,0,0,0,0v9.9h-5v-5.4c0-1.7-1.4-3.1-3.1-3.1S8.9,13,8.9,14.7v5.4h-5v-9.9
	c0-0.3-0.3-0.6-0.6-0.6s-0.6,0.3-0.6,0.6v10.6c0,0.3,0.3,0.6,0.6,0.6c0,0,0,0,0,0h6.3c0.3,0,0.6-0.3,0.6-0.6l0,0v-6
	c0-1,0.8-1.9,1.9-1.9c1,0,1.9,0.8,1.9,1.9c0,0,0,0,0,0v6l0,0c0,0.3,0.3,0.6,0.6,0.6h6.2c0.3,0,0.6-0.3,0.6-0.6v0V10.2
	C21.4,9.9,21.1,9.6,20.7,9.6L20.7,9.6z"/>
</svg>
