<?xml version="1.0" encoding="utf-8"?>
<!-- Generator: Adobe Illustrator 21.0.0, SVG Export Plug-In . SVG Version: 6.00 Build 0)  -->
<svg version="1.1" id="Layer_1" xmlns="http://www.w3.org/2000/svg" xmlns:xlink="http://www.w3.org/1999/xlink" x="0px" y="0px"
	 viewBox="0 0 22.4 18.2" style="enable-background:new 0 0 22.4 18.2;" xml:space="preserve">
<style type="text/css">
	.st0{fill:#5CDB95;}
</style>
<title>list</title>
<path class="st0" d="M21.3,17.9h-15c-0.7-0.1-1.2-0.6-1.1-1.3c0.1-0.6,0.5-1,1.1-1.1h15c0.7,0.1,1.2,0.6,1.1,1.3
	C22.3,17.4,21.9,17.8,21.3,17.9L21.3,17.9z"/>
<path class="st0" d="M21.3,10.3h-15C5.6,10.2,5.1,9.7,5.2,9c0.1-0.6,0.5-1,1.1-1.1h15C22,8,22.5,8.5,22.4,9.2
	C22.3,9.8,21.9,10.2,21.3,10.3L21.3,10.3z"/>
<path class="st0" d="M21.3,2.7h-15c-0.6,0-1.1-0.6-1.1-1.2c0,0,0,0,0,0c0-0.6,0.5-1.2,1.1-1.2c0,0,0,0,0,0h15c0.6,0,1.1,0.6,1.1,1.2
	c0,0,0,0,0,0C22.4,2.2,21.9,2.7,21.3,2.7C21.3,2.7,21.3,2.7,21.3,2.7z"/>
<ellipse class="st0" cx="1.5" cy="1.6" rx="1.5" ry="1.6"/>
<ellipse class="st0" cx="1.5" cy="9.1" rx="1.5" ry="1.6"/>
<ellipse class="st0" cx="1.5" cy="16.6" rx="1.5" ry="1.6"/>
</svg>
